<svg width="179" height="41" viewBox="0 0 179 41" fill="none" xmlns="http://www.w3.org/2000/svg">
<mask id="mask0_3049_6942" style="mask-type:luminance" maskUnits="userSpaceOnUse" x="0" y="0" width="40" height="41">
<path d="M0 0H40V41H0V0Z" fill="white"/>
</mask>
<g mask="url(#mask0_3049_6942)">
<path fill-rule="evenodd" clip-rule="evenodd" d="M13.715 0.515828C11.458 0.515828 9.29501 1.41183 7.69901 3.00783L6.7082e-06 10.7068V14.2308C6.7082e-06 16.7208 1.07001 18.9608 2.77401 20.5158C1.89888 21.3123 1.2 22.2829 0.722271 23.3655C0.244541 24.448 -0.00148113 25.6185 6.7082e-06 26.8018V30.3258L7.69901 38.0238C8.51218 38.8371 9.48182 39.4771 10.5493 39.9051C11.6168 40.333 12.76 40.5401 13.9098 40.5137C15.0596 40.4874 16.1921 40.2281 17.2389 39.7517C18.2857 39.2753 19.225 38.5915 20 37.7418C20.7751 38.5914 21.7145 39.275 22.7612 39.7514C23.808 40.2277 24.9405 40.4869 26.0902 40.5133C27.24 40.5396 28.3831 40.3326 29.4506 39.9047C30.5181 39.4769 31.4878 38.837 32.301 38.0238L40 30.3258V26.8018C40 24.3118 38.93 22.0718 37.226 20.5158C38.101 19.7195 38.7998 18.749 39.2775 17.6666C39.7553 16.5843 40.0014 15.4139 40 14.2308V10.7068L32.301 3.00683C31.4877 2.19372 30.518 1.55393 29.4504 1.12614C28.3829 0.698347 27.2397 0.491424 26.09 0.517876C24.9402 0.544327 23.8078 0.803604 22.7611 1.28004C21.7143 1.75647 20.7751 2.44017 20 3.28983C19.2037 2.41482 18.2332 1.71602 17.1508 1.23829C16.0684 0.760569 14.8981 0.514479 13.715 0.515828ZM25.759 20.5158C25.663 20.428 25.5689 20.338 25.477 20.2458L20 14.7698L14.523 20.2468C14.4311 20.339 14.3371 20.429 14.241 20.5168C14.337 20.6038 14.431 20.6938 14.523 20.7858L20 26.2618L25.477 20.7858C25.569 20.6928 25.663 20.6038 25.759 20.5158ZM22.222 30.3258V32.0078C22.2218 32.8115 22.4599 33.5972 22.9063 34.2655C23.3527 34.9338 23.9872 35.4548 24.7297 35.7624C25.4722 36.0701 26.2892 36.1506 27.0774 35.9939C27.8657 35.8371 28.5897 35.4501 29.158 34.8818L35.556 28.4848V26.8018C35.5564 25.9979 35.3183 25.212 34.8719 24.5435C34.4255 23.8749 33.7908 23.3539 33.0481 23.0462C32.3055 22.7385 31.4882 22.658 30.6998 22.815C29.9114 22.9719 29.1872 23.3592 28.619 23.9278L22.222 30.3258ZM17.778 30.3258L11.381 23.9278C10.8128 23.3593 10.0888 22.972 9.30047 22.815C8.51215 22.658 7.69498 22.7384 6.95235 23.046C6.20972 23.3535 5.57501 23.8745 5.12851 24.5428C4.68201 25.2112 4.4438 25.997 4.44401 26.8008V28.4848L10.841 34.8818C11.4092 35.4504 12.1332 35.8377 12.9215 35.9946C13.7099 36.1516 14.527 36.0712 15.2697 35.7637C16.0123 35.4561 16.647 34.9352 17.0935 34.2668C17.54 33.5984 17.7782 32.8126 17.778 32.0088V30.3258ZM17.778 9.02383V10.7068L11.381 17.1038C10.8128 17.6724 10.0888 18.0597 9.30047 18.2166C8.51215 18.3736 7.69498 18.2932 6.95235 17.9857C6.20972 17.6781 5.57501 17.1572 5.12851 16.4888C4.68201 15.8204 4.4438 15.0346 4.44401 14.2308V12.5478L10.841 6.15083C11.4092 5.58225 12.1332 5.19498 12.9215 5.03801C13.7099 4.88103 14.527 4.96141 15.2697 5.26898C16.0123 5.57654 16.647 6.09747 17.0935 6.76585C17.54 7.43423 17.7782 8.22003 17.778 9.02383ZM28.619 17.1038L22.222 10.7068V9.02383C22.222 8.22023 22.4603 7.43469 22.9067 6.76652C23.3532 6.09835 23.9877 5.57758 24.7302 5.27006C25.4726 4.96253 26.2895 4.88207 27.0777 5.03885C27.8658 5.19563 28.5898 5.5826 29.158 6.15083L35.556 12.5478V14.2308C35.5562 15.0346 35.318 15.8204 34.8715 16.4888C34.425 17.1572 33.7903 17.6781 33.0477 17.9857C32.305 18.2932 31.4879 18.3736 30.6995 18.2166C29.9112 18.0597 29.1872 17.6724 28.619 17.1038Z" fill="#C7231A"/>
</g>
<path d="M54.3164 28.9999V12.1999H65.8004V15.2959H57.8684V18.8959H64.5884V21.7639H57.8684V25.8679H65.8964V28.9999H54.3164ZM67.1344 29.0239L71.5024 22.9879L67.3624 16.8799H71.7904L73.9384 20.5639L76.0264 16.8799H80.3464L76.3264 22.9159L80.6584 28.9999H76.1704L73.8184 25.3039L71.4304 28.9639L67.1344 29.0239ZM87.4274 29.3599C86.1314 29.3599 85.1074 28.9959 84.3554 28.2679C83.6114 27.5319 83.2394 26.4239 83.2394 24.9439V13.3879H86.7434V16.8799H89.7554V19.6879H86.7434V24.3079C86.7434 25.0199 86.8914 25.5199 87.1874 25.8079C87.4834 26.0959 87.8794 26.2399 88.3754 26.2399C88.6314 26.2399 88.8794 26.2119 89.1194 26.1559C89.3674 26.0919 89.5954 26.0039 89.8034 25.8919L90.2954 28.6519C89.9354 28.8519 89.5034 29.0199 88.9994 29.1559C88.4869 29.294 87.9582 29.3626 87.4274 29.3599ZM80.7794 19.6879V16.8799H83.5874V19.6879H80.7794ZM97.9054 29.3599C96.5854 29.3599 95.4254 29.0919 94.4254 28.5559C93.4497 28.0431 92.6385 27.2653 92.0854 26.3119C91.5254 25.3519 91.2454 24.2279 91.2454 22.9399C91.2454 22.0039 91.4054 21.1439 91.7254 20.3599C92.0386 19.5978 92.5041 18.9077 93.0934 18.3319C93.6893 17.7534 94.3952 17.3004 95.1694 16.9999C95.9694 16.6799 96.8454 16.5199 97.7974 16.5199C98.8454 16.5199 99.7734 16.7039 100.581 17.0719C101.371 17.4195 102.066 17.9501 102.609 18.6199C103.145 19.2759 103.517 20.0479 103.725 20.9359C103.941 21.8239 103.961 22.7879 103.785 23.8279H94.4974C94.4974 24.3879 94.6414 24.8759 94.9294 25.2919C95.2254 25.7079 95.6374 26.0359 96.1654 26.2759C96.7014 26.5079 97.3254 26.6239 98.0374 26.6239C98.7414 26.6239 99.4134 26.5279 100.053 26.3359C100.7 26.1409 101.311 25.8452 101.865 25.4599L103.029 27.8599C102.645 28.1559 102.165 28.4199 101.589 28.6519C101.013 28.8759 100.401 29.0479 99.7534 29.1679C99.1452 29.2926 98.5262 29.3569 97.9054 29.3599ZM94.7014 21.4159H100.425C100.401 20.7039 100.149 20.1399 99.6694 19.7239C99.1974 19.3079 98.5454 19.0999 97.7134 19.0999C96.8814 19.0999 96.1894 19.3079 95.6374 19.7239C95.0934 20.1399 94.7814 20.7039 94.7014 21.4159ZM105.828 28.9999V16.8799H109.332V18.2479C109.796 17.6399 110.344 17.1999 110.976 16.9279C111.61 16.6572 112.292 16.5184 112.98 16.5199C114.108 16.5199 115.036 16.7439 115.764 17.1919C116.5 17.6319 117.044 18.2039 117.396 18.9079C117.756 19.6119 117.936 20.3519 117.936 21.1279V28.9999H114.432V22.2199C114.432 21.4519 114.216 20.8399 113.784 20.3839C113.36 19.9279 112.744 19.6999 111.936 19.6999C111.424 19.6999 110.972 19.8159 110.58 20.0479C110.188 20.2719 109.88 20.5879 109.656 20.9959C109.44 21.4039 109.332 21.8759 109.332 22.4119V28.9999H105.828ZM125.118 29.3479C124.038 29.3479 123.042 29.2079 122.13 28.9279C121.218 28.6399 120.438 28.2479 119.79 27.7519L120.93 25.3039C121.564 25.7367 122.255 26.08 122.982 26.3239C123.718 26.5639 124.426 26.6839 125.106 26.6839C125.778 26.6839 126.294 26.5839 126.654 26.3839C127.022 26.1759 127.206 25.8799 127.206 25.4959C127.206 25.1519 127.042 24.8999 126.714 24.7399C126.394 24.5719 125.77 24.3919 124.842 24.1999C123.242 23.9119 122.074 23.4599 121.338 22.8439C120.602 22.2199 120.234 21.3639 120.234 20.2759C120.234 19.5079 120.446 18.8319 120.87 18.2479C121.302 17.6639 121.894 17.2119 122.646 16.8919C123.398 16.5639 124.262 16.3999 125.238 16.3999C126.198 16.3999 127.102 16.5319 127.95 16.7959C128.806 17.0519 129.538 17.4119 130.146 17.8759L129.042 20.3359C128.703 20.068 128.332 19.8423 127.938 19.6639C127.524 19.4696 127.089 19.3207 126.642 19.2199C126.211 19.11 125.768 19.0535 125.322 19.0519C124.738 19.0519 124.266 19.1519 123.906 19.3519C123.546 19.5439 123.366 19.8159 123.366 20.1679C123.366 20.5199 123.53 20.7799 123.858 20.9479C124.186 21.1159 124.798 21.2999 125.694 21.4999C127.366 21.8519 128.554 22.3199 129.258 22.9039C129.97 23.4799 130.326 24.2919 130.326 25.3399C130.326 26.1479 130.106 26.8519 129.666 27.4519C129.234 28.0519 128.626 28.5199 127.842 28.8559C127.066 29.1839 126.158 29.3479 125.118 29.3479ZM132.531 28.9999V16.8799H136.035V28.9999H132.531ZM134.283 14.9599C133.73 14.971 133.192 14.7789 132.771 14.4199C132.347 14.0519 132.135 13.5639 132.135 12.9559C132.135 12.3399 132.347 11.8519 132.771 11.4919C133.189 11.126 133.728 10.9292 134.283 10.9399C134.839 10.9292 135.378 11.126 135.795 11.4919C136.219 11.8519 136.431 12.3399 136.431 12.9559C136.431 13.5639 136.219 14.0519 135.795 14.4199C135.374 14.7789 134.837 14.971 134.283 14.9599ZM144.645 29.3599C143.341 29.3599 142.185 29.0679 141.177 28.4839C140.197 27.9269 139.378 27.1247 138.801 26.1559C138.233 25.18 137.939 24.069 137.949 22.9399C137.949 22.0839 138.113 21.2719 138.441 20.5039C138.765 19.7344 139.238 19.0369 139.833 18.4519C140.433 17.8519 141.141 17.3799 141.957 17.0359C142.773 16.6919 143.669 16.5199 144.645 16.5199C145.949 16.5199 147.101 16.8119 148.101 17.3959C149.082 17.9531 149.898 18.7606 150.465 19.7359C151.041 20.7039 151.329 21.7719 151.329 22.9399C151.329 23.7879 151.165 24.5999 150.837 25.3759C150.512 26.1479 150.039 26.849 149.445 27.4399C148.84 28.041 148.122 28.518 147.333 28.8439C146.517 29.1879 145.621 29.3599 144.645 29.3599ZM144.645 26.3239C145.261 26.3239 145.813 26.1879 146.301 25.9159C146.789 25.6359 147.173 25.2439 147.453 24.7399C147.733 24.2279 147.873 23.6279 147.873 22.9399C147.873 22.2439 147.733 21.6439 147.453 21.1399C147.195 20.6493 146.798 20.2449 146.313 19.9759C145.825 19.6959 145.269 19.5559 144.645 19.5559C144.021 19.5559 143.461 19.6959 142.965 19.9759C142.477 20.2479 142.093 20.6359 141.813 21.1399C141.541 21.6439 141.405 22.2439 141.405 22.9399C141.405 23.6359 141.545 24.2359 141.825 24.7399C142.105 25.2439 142.489 25.6359 142.977 25.9159C143.465 26.1879 144.021 26.3239 144.645 26.3239ZM153.233 28.9999V16.8799H156.737V18.2479C157.201 17.6399 157.749 17.1999 158.381 16.9279C159.015 16.6572 159.697 16.5184 160.385 16.5199C161.513 16.5199 162.441 16.7439 163.169 17.1919C163.905 17.6319 164.449 18.2039 164.801 18.9079C165.161 19.6119 165.341 20.3519 165.341 21.1279V28.9999H161.837V22.2199C161.837 21.4519 161.621 20.8399 161.189 20.3839C160.765 19.9279 160.149 19.6999 159.341 19.6999C158.829 19.6999 158.377 19.8159 157.985 20.0479C157.593 20.2719 157.285 20.5879 157.061 20.9959C156.845 21.4039 156.737 21.8759 156.737 22.4119V28.9999H153.233ZM172.524 29.3479C171.444 29.3479 170.448 29.2079 169.536 28.9279C168.624 28.6399 167.844 28.2479 167.196 27.7519L168.336 25.3039C168.97 25.7367 169.661 26.08 170.388 26.3239C171.124 26.5639 171.832 26.6839 172.512 26.6839C173.184 26.6839 173.7 26.5839 174.06 26.3839C174.428 26.1759 174.612 25.8799 174.612 25.4959C174.612 25.1519 174.448 24.8999 174.12 24.7399C173.8 24.5719 173.176 24.3919 172.248 24.1999C170.648 23.9119 169.48 23.4599 168.744 22.8439C168.008 22.2199 167.64 21.3639 167.64 20.2759C167.64 19.5079 167.852 18.8319 168.276 18.2479C168.708 17.6639 169.3 17.2119 170.052 16.8919C170.804 16.5639 171.668 16.3999 172.644 16.3999C173.604 16.3999 174.508 16.5319 175.356 16.7959C176.212 17.0519 176.944 17.4119 177.552 17.8759L176.448 20.3359C176.109 20.068 175.738 19.8423 175.344 19.6639C174.93 19.4696 174.495 19.3207 174.048 19.2199C173.617 19.11 173.174 19.0535 172.728 19.0519C172.144 19.0519 171.672 19.1519 171.312 19.3519C170.952 19.5439 170.772 19.8159 170.772 20.1679C170.772 20.5199 170.936 20.7799 171.264 20.9479C171.592 21.1159 172.204 21.2999 173.1 21.4999C174.772 21.8519 175.96 22.3199 176.664 22.9039C177.376 23.4799 177.732 24.2919 177.732 25.3399C177.732 26.1479 177.512 26.8519 177.072 27.4519C176.64 28.0519 176.032 28.5199 175.248 28.8559C174.472 29.1839 173.564 29.3479 172.524 29.3479Z" fill="#FBFDFE"/>
</svg>
